<svg id="Capa_1" enable-background="new 0 0 512 512" height="512" viewBox="0 0 512 512" width="512" xmlns="http://www.w3.org/2000/svg"><g><path d="m451.788 7.5h-145.834c-12.664 0-22.931 10.267-22.931 22.931v200.448c0 12.665 10.267 22.931 22.931 22.931h43.143c3.104 0 5.972 1.656 7.524 4.344l14.727 25.507c3.344 5.792 11.703 5.792 15.047 0l14.727-25.507c1.552-2.688 4.42-4.344 7.524-4.344h43.143c12.664 0 22.931-10.267 22.931-22.931v-200.448c-.001-12.664-10.268-22.931-22.932-22.931z" fill="#9dc6fb"/><g fill="#80b4fb"><path d="m375.429 258.154-9.404 16.288 5.323 9.219c3.344 5.792 11.704 5.792 15.048 0l14.727-25.507c1.552-2.688 4.42-4.344 7.524-4.344h-25.693c-3.106 0-5.974 1.656-7.525 4.344z"/><path d="m451.788 7.5h-25.693c12.664 0 22.931 10.267 22.931 22.931v200.448c0 12.664-10.267 22.931-22.931 22.931h25.693c12.665 0 22.931-10.267 22.931-22.931v-200.448c0-12.664-10.267-22.931-22.931-22.931z"/></g><path d="m154.397 478.768 13.972 4.031c113.943 32.873 236.767 7.474 328.326-67.896 10.015-8.244 10.464-23.427.954-32.248l-.432-.401c-9.699-8.997-24.059-10.446-35.258-3.634l-45.935 27.943c-46.503 28.288-103.178 34.428-154.66 16.756-21.249-7.294-25.266-35.606-6.885-48.523l47.773-33.571c9.009-6.331 11.326-18.692 5.22-27.856-4.637-6.959-13.068-10.361-21.236-8.569l-131.838 28.923-21.748 23.484v99.667z" fill="#ffcbbe"/><path d="m301.107 311.473-47.773 33.571c-13.241 9.305-14.856 26.597-6.783 38.268 1.9-3.211 4.528-6.128 7.928-8.517l47.773-33.571c9.009-6.331 11.326-18.692 5.22-27.856-1.051-1.578-2.306-2.962-3.7-4.155-.815.812-1.693 1.577-2.665 2.26z" fill="#eaac9d"/><path d="m497.874 382.889c-.714.794-1.471 1.562-2.323 2.263-91.559 75.37-214.383 100.769-328.326 67.895l-13.972-4.031-20.603-20.743v28.599l21.748 21.895 13.972 4.031c113.943 32.873 236.767 7.474 328.326-67.895 9.928-8.173 10.44-23.161 1.178-32.014z" fill="#eaac9d"/><path d="m15.334 504.5h127.114c6.599 0 11.949-5.35 11.949-11.949v-169.702c0-6.599-5.35-11.949-11.949-11.949h-127.114c-4.325 0-7.831 3.506-7.831 7.831v177.937c0 4.326 3.506 7.832 7.831 7.832z" fill="#365e7d"/><path d="m154.397 492.551v-169.702c0-6.599-5.35-11.949-11.949-11.949h-13.365v152.837c0 6.599-5.35 11.949-11.949 11.949h-109.631v20.982c0 4.325 3.506 7.831 7.831 7.831h127.114c6.599.001 11.949-5.349 11.949-11.948z" fill="#2b4d66"/><g fill="#e7a561"><path d="m380.249 156.872h-2.757c-8.324 0-15.271-6.352-16.015-14.642l-7.17-79.899c-.787-8.774 6.123-16.333 14.933-16.333h19.261c8.809 0 15.72 7.559 14.933 16.333l-7.17 79.899c-.744 8.29-7.691 14.642-16.015 14.642z"/><path d="m384.053 183.154h-10.364c-6.018 0-10.897 4.879-10.897 10.897v10.364c0 6.018 4.879 10.897 10.897 10.897h10.364c6.018 0 10.897-4.879 10.897-10.897v-10.364c0-6.018-4.879-10.897-10.897-10.897z"/></g><g><path d="m502.755 377.164-.438-.408c-12.063-11.188-30.262-13.056-44.256-4.542l-45.935 27.942c-44.738 27.213-98.802 33.069-148.328 16.069-7.259-2.492-12.235-8.516-13.313-16.114-1.077-7.597 2.027-14.767 8.307-19.179l47.772-33.571c12.439-8.742 15.58-25.5 7.149-38.15-6.399-9.604-17.816-14.21-29.085-11.737l-122.731 26.925v-1.55c0-10.724-8.725-19.448-19.449-19.448h-61.498c-4.143 0-7.5 3.357-7.5 7.5s3.357 7.5 7.5 7.5h61.498c2.453 0 4.449 1.995 4.449 4.448v169.702c0 2.453-1.996 4.449-4.449 4.449h-127.114c-.183 0-.332-.148-.332-.331v-177.938c0-.183.149-.331.332-.331h35.629c4.143 0 7.5-3.357 7.5-7.5s-3.357-7.5-7.5-7.5h-35.629c-8.454 0-15.332 6.878-15.332 15.331v177.938c0 8.453 6.878 15.331 15.332 15.331h127.113c10.725 0 19.449-8.725 19.449-19.449v-3.812l4.393 1.267c33.148 9.564 67.112 14.367 101.401 14.367 12.853 0 25.758-.675 38.673-2.028 47.772-5.003 93.381-19.034 135.56-41.702 3.648-1.961 5.017-6.509 3.056-10.157-1.96-3.648-6.508-5.02-10.157-3.056-40.452 21.741-84.197 35.197-130.021 39.997-45.441 4.758-90.646.777-134.354-11.833l-8.551-2.467v-133.37l125.946-27.63c5.192-1.143 10.441.981 13.387 5.402 3.881 5.823 2.436 13.536-3.291 17.56l-47.772 33.571c-10.821 7.605-16.391 20.464-14.532 33.56 1.857 13.096 10.784 23.899 23.294 28.193 53.757 18.454 112.436 12.098 160.993-17.441l45.936-27.942c8.291-5.045 19.091-3.923 26.252 2.719l.438.408c6.17 5.722 5.896 15.594-.619 20.959-9.939 8.182-20.43 15.894-31.179 22.921-3.467 2.267-4.439 6.914-2.173 10.382 1.438 2.201 3.837 3.396 6.284 3.396 1.407 0 2.831-.396 4.098-1.224 11.206-7.326 22.142-15.365 32.503-23.896 13.509-11.121 14.123-31.633 1.294-43.531z"/><path d="m108.826 445.272v-16.267c0-4.143-3.357-7.5-7.5-7.5s-7.5 3.357-7.5 7.5v16.267c0 4.143 3.357 7.5 7.5 7.5s7.5-3.357 7.5-7.5z"/><path d="m410.904 63c.563-6.273-1.552-12.538-5.802-17.187-4.251-4.649-10.302-7.315-16.601-7.315h-19.261c-6.299 0-12.35 2.666-16.601 7.315-4.25 4.648-6.365 10.913-5.802 17.187l7.17 79.899c1.097 12.241 11.193 21.473 23.484 21.473h2.757c12.29 0 22.386-9.231 23.484-21.473zm-14.94-1.34-7.17 79.898c-.4 4.454-4.073 7.813-8.545 7.813h-2.757c-4.472 0-8.146-3.358-8.545-7.812l-7.17-79.899c-.19-2.121.496-4.154 1.934-5.726 1.437-1.571 3.4-2.437 5.529-2.437h19.261c2.129 0 4.093.865 5.529 2.437 1.438 1.572 2.125 3.605 1.934 5.726z"/><path d="m373.689 175.653c-10.145 0-18.397 8.253-18.397 18.397v10.364c0 10.145 8.253 18.397 18.397 18.397h10.364c10.145 0 18.397-8.253 18.397-18.397v-10.364c0-10.145-8.253-18.397-18.397-18.397zm13.762 18.398v10.364c0 1.873-1.524 3.397-3.397 3.397h-10.364c-1.873 0-3.397-1.524-3.397-3.397v-10.364c0-1.873 1.524-3.397 3.397-3.397h10.364c1.872-.001 3.397 1.524 3.397 3.397z"/><path d="m305.954 261.311h43.143c.423 0 .816.228 1.028.594l14.727 25.507c2.926 5.067 8.166 8.094 14.018 8.094h.001c5.852 0 11.093-3.025 14.02-8.094l14.728-25.508c.211-.365.604-.593 1.027-.593h43.143c16.78 0 30.432-13.651 30.432-30.432v-105.697c0-4.143-3.357-7.5-7.5-7.5s-7.5 3.357-7.5 7.5v105.697c0 8.509-6.923 15.432-15.432 15.432h-43.143c-5.766 0-11.138 3.102-14.019 8.094l-14.727 25.505c-.085.147-.343.595-1.029.595s-.943-.446-1.028-.594l-14.726-25.506c-2.882-4.993-8.254-8.095-14.02-8.095h-43.143c-8.509 0-15.432-6.923-15.432-15.432v-200.447c0-8.509 6.922-15.431 15.431-15.431h145.834c8.509 0 15.432 6.922 15.432 15.431v64.765c0 4.143 3.357 7.5 7.5 7.5s7.5-3.357 7.5-7.5v-64.765c0-16.78-13.651-30.431-30.432-30.431h-145.834c-16.779 0-30.431 13.651-30.431 30.431v200.448c.001 16.78 13.652 30.432 30.432 30.432z"/></g></g></svg>