<svg id="Capa_1" enable-background="new 0 0 509.796 509.796" height="512" viewBox="0 0 509.796 509.796" width="512" xmlns="http://www.w3.org/2000/svg"><g><g><path d="m361.325 142.654v126.326c0 14.426-3.457 28.642-10.081 41.456l-7.702 14.904c-6.624 12.826-10.081 27.041-10.081 41.468v12.337h-147.087v-247.567z" fill="#ffe5c2"/><path d="m339.914 141.299v127.681c0 14.426-3.457 28.642-10.081 41.456l-7.702 14.904c-6.624 12.826-10.081 27.041-10.081 41.468v12.337h21.411v-12.337c0-14.426 3.457-28.642 10.081-41.468l7.702-14.904c6.624-12.815 10.081-27.03 10.081-41.456v-126.326z" fill="#fed2a4"/><path d="m186.374 223.278s0-36.744 0-62.04v-18.583" fill="#ffe5c2"/><path d="m186.37 378.133v-10.91c0-14.558-4.497-28.76-12.877-40.664l-18.43-26.182c-10.084-14.326-15.496-31.417-15.496-48.935v-90.202c0-12.924 10.477-23.401 23.401-23.401 12.925 0 23.402 10.473 23.402 23.398-.001 25.295-.001 62.042-.001 62.042l44.027 42.675c8.39 8.133 14.51 18.317 17.752 29.543l2.853 9.88" fill="#ffe5c2"/><g><path d="m164.96 161.236c-.001 25.296-.001 62.042-.001 62.042l44.028 42.675c8.39 8.132 14.509 18.316 17.751 29.542 1.67 5.782 7.112 9.645 13.121 9.314l10.807-.596-2.517-8.718c-3.242-11.226-9.361-21.41-17.752-29.543l-44.027-42.675s0-36.746.001-62.042c0-12.925-10.477-23.398-23.402-23.398-3.859 0-7.495.94-10.704 2.594 7.538 3.887 12.695 11.74 12.695 20.805z" fill="#fed2a4"/></g><path d="m317.584 155.085c0 12.078 9.791 21.869 21.869 21.869 12.078 0 21.869-9.791 21.869-21.869v-33.418c0-12.078-9.791-21.869-21.869-21.869-12.078 0-21.869 9.791-21.869 21.869z" fill="#ffe5c2"/><path d="m339.453 99.797c-3.89 0-7.54 1.02-10.705 2.801 6.661 3.748 11.164 10.88 11.164 19.068v33.418c0 8.188-4.503 15.32-11.164 19.068 3.165 1.781 6.815 2.801 10.705 2.801 12.078 0 21.869-9.791 21.869-21.869v-33.418c0-12.077-9.791-21.869-21.869-21.869z" fill="#fed2a4"/><path d="m273.846 160.991c0 12.078 9.791 21.869 21.869 21.869 12.078 0 21.869-9.791 21.869-21.869v-57.137c0-12.078-9.791-21.869-21.869-21.869-12.078 0-21.869 9.791-21.869 21.869z" fill="#ffe5c2"/><path d="m295.715 81.985c-3.89 0-7.54 1.021-10.705 2.801 6.661 3.748 11.164 10.88 11.164 19.068v57.137c0 8.188-4.503 15.32-11.164 19.068 3.165 1.781 6.815 2.801 10.705 2.801 12.078 0 21.869-9.791 21.869-21.869v-57.137c0-12.078-9.791-21.869-21.869-21.869z" fill="#fed2a4"/><path d="m230.108 103.854c0-12.078 9.791-21.869 21.869-21.869 12.078 0 21.869 9.791 21.869 21.869v55.447c0 12.078-9.791 21.869-21.869 21.869-12.078 0-21.869-9.791-21.869-21.869z" fill="#ffe5c2"/><path d="m251.977 81.985c-3.89 0-7.54 1.021-10.705 2.801 6.661 3.748 11.164 10.88 11.164 19.068v55.447c0 8.188-4.503 15.32-11.164 19.068 3.165 1.781 6.815 2.801 10.705 2.801 12.078 0 21.869-9.791 21.869-21.869v-55.447c0-12.078-9.791-21.869-21.869-21.869z" fill="#fed2a4"/><path d="m230.108 186.33v-155.64c0-12.078-9.791-21.869-21.869-21.869-12.078 0-21.869 9.791-21.869 21.869v111.963z" fill="#ffe5c2"/><path d="m209.446 8.853c-4.342-.234-8.422.804-11.913 2.768 6.661 3.748 11.164 10.88 11.164 19.068v148.141c0 9.665 7.835 17.5 17.5 17.5h3.911v-165.136c0-11.698-8.981-21.71-20.662-22.341z" fill="#fed2a4"/><path d="m341.825 379.147h-161.746c-5.117 0-9.266 4.148-9.266 9.266v43.091c0 5.117 4.148 9.266 9.266 9.266h161.746c5.117 0 9.266-4.148 9.266-9.266v-43.091c0-5.117-4.148-9.266-9.266-9.266z" fill="#aca6d6"/><path d="m341.825 379.147h-21.411c5.117 0 9.266 4.148 9.266 9.266v43.091c0 5.117-4.148 9.266-9.266 9.266h21.411c5.117 0 9.266-4.148 9.266-9.266v-43.091c0-5.117-4.148-9.266-9.266-9.266z" fill="#978ecb"/><path d="m351.366 502.232h-180.766c-5.84 0-10.463-4.936-10.081-10.764l.836-12.755c1.147-14.524 7.74-28.077 18.459-37.944h162.277l1.034.994c10.294 9.889 16.561 23.241 17.591 37.478l.734 12.285c.348 5.807-4.267 10.706-10.084 10.706z" fill="#978ecb"/><path d="m361.451 491.526-.734-12.285c-1.03-14.238-7.297-27.589-17.592-37.479l-1.034-.993h-21.411l1.034.993c10.294 9.889 16.561 23.241 17.591 37.479l.734 12.285c.347 5.807-4.268 10.706-10.085 10.706h21.41c5.819 0 10.434-4.899 10.087-10.706z" fill="#8379c1"/></g><g><path d="m368.197 478.7c-.955-13.198-5.868-25.672-14.015-35.905 2.728-2.983 4.409-6.94 4.409-11.291v-43.091c0-9.606-8.211-16.987-17.63-16.766 0-13.319 1.669-26.109 7.111-38.408 2.922-6.605 6.522-12.947 9.835-19.36 7.143-13.819 10.918-29.346 10.918-44.9v-32.797c0-4.143-3.357-7.5-7.5-7.5s-7.5 3.357-7.5 7.5v32.797c0 13.169-3.196 26.313-9.244 38.014-3.869 7.487-8.104 14.906-11.297 22.714-5.521 13.501-7.323 27.463-7.323 41.941h-132.087c0-18.632-4.346-35.186-15.092-50.604-5.823-8.354-11.724-16.655-17.586-24.983-9.243-13.132-14.129-28.561-14.129-44.618v-90.203c0-8.768 7.134-15.901 15.901-15.901 8.769 0 15.902 7.132 15.902 15.897l-.001 62.042c0 7.701 13.232 16.001 17.526 20.163 9.594 9.299 19.188 18.598 28.781 27.897 10.322 10.004 14.747 22.708 18.618 36.118 1.148 3.98 5.309 6.273 9.286 5.126 3.979-1.149 6.274-5.307 5.126-9.286-4.635-16.05-10.263-30.781-22.591-42.729l-41.743-40.46-.002-189.418c0-7.923 6.446-14.369 14.369-14.369s14.369 6.446 14.369 14.369v165.641c0 4.143 3.357 7.5 7.5 7.5s7.5-3.357 7.5-7.5v-11.429c4.251 2.396 9.151 3.77 14.369 3.77 8.279 0 15.764-3.449 21.108-8.98 5.391 6.513 13.534 10.67 22.629 10.67 10.199 0 19.198-5.229 24.464-13.144 5.162 4.501 11.903 7.237 19.274 7.237 5.219 0 10.12-1.375 14.372-3.771v19.276c0 4.143 3.357 7.5 7.5 7.5s7.5-3.357 7.5-7.5l-.003-78.292c0-16.194-13.175-29.369-29.369-29.369-5.593 0-10.824 1.573-15.279 4.297-3.24-12.695-14.77-22.11-28.459-22.11-8.679 0-16.488 3.787-21.869 9.792-5.381-6.005-13.189-9.792-21.868-9.792-5.218 0-10.118 1.374-14.369 3.77v-47.566c0-16.194-13.175-29.369-29.369-29.369s-29.369 13.175-29.369 29.369v104.065c-4.649-2.801-10.089-4.416-15.901-4.416-17.039 0-30.901 13.862-30.901 30.901v90.202c0 19.165 5.831 37.58 16.863 53.253 5.584 7.933 11.185 15.854 16.752 23.798 9.326 13.309 13.188 27.042 13.188 43.215-8.68.624-15.557 7.869-15.557 16.704v43.091c0 4.359 1.686 8.322 4.423 11.307-7.978 10.079-12.831 22.305-13.859 35.312-.003.034-.005.067-.008.101l-.835 12.755c-.503 7.691 4.284 15.027 11.517 17.676 4.193 1.536 8.894 1.078 13.282 1.078 4.143 0 7.5-3.357 7.5-7.5s-3.357-7.5-7.5-7.5c-2.329 0-10.103 1.385-9.83-2.773l.831-12.702c.937-11.713 5.887-22.61 14.022-30.987h156.181c8.312 8.492 13.338 19.618 14.192 31.419l.734 12.286c.089 1.485-1.112 2.758-2.599 2.758h-138.072c-4.143 0-7.5 3.357-7.5 7.5s3.357 7.5 7.5 7.5h138.073c9.981 0 18.169-8.681 17.571-18.653zm-28.744-371.402c7.923 0 14.369 6.446 14.369 14.369v33.418c0 7.923-6.446 14.369-14.369 14.369s-14.369-6.446-14.369-14.369v-33.418c0-7.923 6.446-14.369 14.369-14.369zm-43.738-17.813c7.923 0 14.369 6.446 14.369 14.369v57.137c0 7.923-6.446 14.369-14.369 14.369s-14.369-6.446-14.369-14.369v-57.137c-.001-7.922 6.446-14.369 14.369-14.369zm-43.738 0c7.923 0 14.368 6.446 14.368 14.369v55.447c0 7.923-6.445 14.369-14.368 14.369s-14.369-6.446-14.369-14.369v-55.447c0-7.922 6.446-14.369 14.369-14.369zm-71.897 343.785c-.974 0-1.767-.792-1.767-1.766v-43.091c0-.974.793-1.766 1.767-1.766h161.745c.974 0 1.766.792 1.766 1.766v43.091c0 .974-.792 1.766-1.766 1.766z"/><path d="m223.587 402.451c-4.146 0-7.508 3.361-7.508 7.508s3.362 7.508 7.508 7.508 7.508-3.361 7.508-7.508-3.361-7.508-7.508-7.508z"/><path d="m453.58 164.629h-28.115c-4.143 0-7.5 3.357-7.5 7.5s3.357 7.5 7.5 7.5h28.115c4.143 0 7.5-3.357 7.5-7.5s-3.358-7.5-7.5-7.5z"/><path d="m273.845 43.115c4.143 0 7.5-3.357 7.5-7.5v-28.115c0-4.143-3.357-7.5-7.5-7.5s-7.5 3.357-7.5 7.5v28.115c0 4.143 3.358 7.5 7.5 7.5z"/><path d="m404.778 89.46c1.919 0 3.839-.732 5.304-2.196l9.94-9.94c2.929-2.93 2.929-7.678 0-10.607-2.93-2.928-7.678-2.928-10.607 0l-9.94 9.94c-2.929 2.93-2.929 7.678 0 10.607 1.464 1.464 3.384 2.196 5.303 2.196z"/><path d="m410.081 251.253c-2.928-2.928-7.677-2.929-10.606.001-2.929 2.929-2.929 7.678.001 10.606l9.94 9.939c1.464 1.464 3.384 2.196 5.303 2.196s3.839-.732 5.304-2.197c2.929-2.929 2.929-7.678-.001-10.606z"/><path d="m91.832 172.129c0-4.143-3.357-7.5-7.5-7.5h-28.115c-4.143 0-7.5 3.357-7.5 7.5s3.357 7.5 7.5 7.5h28.115c4.142 0 7.5-3.358 7.5-7.5z"/><path d="m100.382 66.716c-2.93-2.928-7.678-2.928-10.607 0-2.929 2.93-2.929 7.678 0 10.607l9.94 9.94c1.465 1.464 3.385 2.196 5.304 2.196s3.839-.732 5.304-2.196c2.929-2.93 2.929-7.678 0-10.607z"/><path d="m99.716 251.253-9.94 9.939c-2.93 2.929-2.93 7.678-.001 10.606 1.465 1.465 3.384 2.197 5.304 2.197 1.919 0 3.839-.732 5.303-2.196l9.94-9.939c2.93-2.929 2.93-7.678.001-10.606s-7.679-2.93-10.607-.001z"/></g></g></svg>